<svg class="logo" width="30" height="36" viewBox="0 0 32 36" fill="none" xmlns="http://www.w3.org/2000/svg">
<path d="M0.132568 19.0588V8.86765L15.4855 0L30.8385 8.86765L27.5296 11.25L15.4855 4.36765L3.7061 11.25V17.0735L12.309 22.1029L8.73551 24.0882L0.132568 19.0588Z" fill="#FD4040"/>
<path d="M6.61743 15.3529V12.8382L15.4851 7.67647L24.3527 13.1029L20.9116 15.3529L15.4851 12.1765L10.3233 15.3529V17.4706L6.61743 15.3529Z" fill="#FD4040"/>
<path d="M0 27.1324V22.8971L8.73529 27.6618L20.7794 20.5147L24.6176 22.8971L8.73529 32.1618L0 27.1324Z" fill="#FD4040"/>
<path d="M15.353 36L12.0442 33.8824L27.6618 24.6176L31.103 27L15.353 36Z" fill="#FD4040"/>
</svg>
