<svg width="17" height="17" viewBox="0 0 17 17" fill="none" xmlns="http://www.w3.org/2000/svg">
<path d="M8.5 16C12.6421 16 16 12.6421 16 8.5C16 4.35786 12.6421 1 8.5 1C4.35786 1 1 4.35786 1 8.5C1 12.6421 4.35786 16 8.5 16Z" stroke="white" stroke-opacity="0.44" stroke-width="1.2" stroke-linecap="round" stroke-linejoin="round"/>
<path d="M6.31738 6.25002C6.49371 5.74877 6.84175 5.3261 7.29985 5.05686C7.75795 4.78763 8.29655 4.68922 8.82027 4.77905C9.34398 4.86888 9.819 5.14116 10.1612 5.54766C10.5034 5.95416 10.6907 6.46866 10.6899 7.00002C10.6899 8.50001 8.43988 9.25001 8.43988 9.25001" stroke="white" stroke-opacity="0.44" stroke-width="1.2" stroke-linecap="round" stroke-linejoin="round"/>
<path d="M8.5 12.25H8.50794" stroke="white" stroke-opacity="0.44" stroke-width="1.2" stroke-linecap="round" stroke-linejoin="round"/>
</svg>
