<svg xmlns="http://www.w3.org/2000/svg" xmlns:xlink="http://www.w3.org/1999/xlink" width="20" height="20" preserveAspectRatio="xMidYMid meet" viewBox="0 0 20 20" style="-ms-transform: rotate(360deg); -webkit-transform: rotate(360deg); transform: rotate(360deg);"><path d="M9 0a9 9 0 1 0 0 18A9 9 0 0 0 9 0zM1.11 9.68h2.51c.04.91.167 1.814.38 2.7H1.84a7.86 7.86 0 0 1-.73-2.7zm8.57-5.4V1.19a4.13 4.13 0 0 1 2.22 2c.205.347.386.708.54 1.08l-2.76.01zm3.22 1.35c.232.883.37 1.788.41 2.7H9.68v-2.7h3.22zM8.32 1.19v3.09H5.56A8.53 8.53 0 0 1 6.1 3.2a4.13 4.13 0 0 1 2.22-2.01zm0 4.44v2.7H4.7c.04-.912.178-1.817.41-2.7h3.21zm-4.7 2.69H1.11a7.86 7.86 0 0 1 .73-2.7H4a14.13 14.13 0 0 0-.38 2.7zM4.7 9.68h3.62v2.7H5.11a12.88 12.88 0 0 1-.41-2.7zm3.63 4v3.09a4.13 4.13 0 0 1-2.22-2a8.53 8.53 0 0 1-.54-1.08l2.76-.01zm1.35 3.09v-3.04h2.76a8.53 8.53 0 0 1-.54 1.08a4.13 4.13 0 0 1-2.22 2v-.04zm0-4.44v-2.7h3.62a12.88 12.88 0 0 1-.41 2.7H9.68zm4.71-2.7h2.51a7.86 7.86 0 0 1-.73 2.7H14c.21-.87.337-1.757.38-2.65l.01-.05zm0-1.35A14.13 14.13 0 0 0 14 5.63h2.16c.403.85.65 1.764.73 2.7l-2.5-.05zm1-4H13.6a8.92 8.92 0 0 0-1.39-2.52a8 8 0 0 1 3.14 2.52h.04zm-9.6-2.52A8.92 8.92 0 0 0 4.4 4.28H2.65a8 8 0 0 1 3.14-2.52zm-3.15 12H4.4a8.92 8.92 0 0 0 1.39 2.52a8 8 0 0 1-3.14-2.55l-.01.03zm9.56 2.52a8.92 8.92 0 0 0 1.39-2.52h1.76a8 8 0 0 1-3.14 2.48l-.01.04z" fill="#444"/><rect x="0" y="0" width="20" height="20" fill="rgba(0, 0, 0, 0)" /></svg>
