<svg xmlns="http://www.w3.org/2000/svg" xmlns:xlink="http://www.w3.org/1999/xlink" width="20" height="20" preserveAspectRatio="xMidYMid meet" viewBox="0 0 20 20" style="-ms-transform: rotate(360deg); -webkit-transform: rotate(360deg); transform: rotate(360deg);"><path d="M7 2H2v5l1.8-1.8L6.5 8L8 6.5L5.2 3.8L7 2zm6 0l1.8 1.8L12 6.5L13.5 8l2.7-2.7L18 7V2h-5zm.5 10L12 13.5l2.7 2.7L13 18h5v-5l-1.8 1.8l-2.7-2.8zm-7 0l-2.7 2.7L2 13v5h5l-1.8-1.8L8 13.5L6.5 12z" fill="#fff"/><rect x="0" y="0" width="20" height="20" fill="rgba(0, 0, 0, 0)" /></svg>